# SSTK version 0.8.0
# 78
mtllib original-78.mtl
o Group71/mesh135/mesh135-geometry#mesh135-geometry
v -0.583769 -0.107100 0.231240
v -0.543686 -0.107100 0.191157
v -0.583769 -0.107100 0.191157
v -0.543686 -0.107100 0.231240
v -0.583769 -0.273159 0.191157
v -0.543686 -0.273159 0.231240
v -0.543686 -0.273159 0.191157
v -0.583769 -0.273159 0.231240
v -0.583574 -0.274641 0.191352
v -0.583574 -0.274641 0.231045
v -0.543881 -0.274641 0.231045
v -0.543881 -0.274641 0.191352
v -0.583002 -0.276022 0.191924
v -0.583002 -0.276022 0.230473
v -0.544453 -0.276022 0.230473
v -0.544453 -0.276022 0.191924
v -0.582092 -0.277208 0.192834
v -0.582092 -0.277208 0.229563
v -0.545363 -0.277208 0.229563
v -0.545363 -0.277208 0.192834
v -0.546549 -0.278118 0.194020
v -0.580906 -0.278118 0.194020
v -0.580906 -0.278118 0.228377
v -0.546549 -0.278118 0.228377
v -0.547930 -0.278690 0.195401
v -0.579525 -0.278690 0.195401
v -0.579525 -0.278690 0.226996
v -0.547930 -0.278690 0.226996
v -0.549412 -0.278885 0.196883
v -0.578043 -0.278885 0.196883
v -0.578043 -0.278885 0.225514
v -0.549412 -0.278885 0.225514
vn 0 1 0
vn 0 -1 0
vn 0 0 -1
vn 0 0 1
vn -1 0 0
vn 1 0 0
vn 0.6951606846185294 -0.18303891695864843 -0.6951606846185294
vn -0.6612249289014628 -0.35434896189845283 -0.6612249289014628
vn -0.6951606846185294 -0.18303891695864843 -0.6951606846185294
vn 0.6951606846185294 0.18303891695864843 0.6951606846185294
vn 0.6612249289014628 0.35434896189845283 0.6612249289014628
vn -0.6951606846185294 0.18303891695864843 0.6951606846185294
vn -0.6951606846185294 -0.18303891695864843 0.6951606846185294
vn 0.6951606846185294 0.18303891695864843 -0.6951606846185294
vn -0.6612249289014628 -0.35434896189845283 0.6612249289014628
vn 0.6951606846185294 -0.18303891695864843 0.6951606846185294
vn -0.6951606846185294 0.18303891695864843 -0.6951606846185294
vn 0.6612249289014628 0.35434896189845283 -0.6612249289014628
vn 0.6612249289014628 -0.35434896189845283 0.6612249289014628
vn -0.6612249289014628 0.35434896189845283 -0.6612249289014628
vn 0.6612249289014628 -0.35434896189845283 -0.6612249289014628
vn -0.6612249289014628 0.35434896189845283 0.6612249289014628
vn -0.5477225723947978 -0.6324555062440764 -0.5477225723947978
vn 0.5477225723947978 0.6324555062440764 0.5477225723947978
vn -0.5477225723947978 -0.6324555062440764 0.5477225723947978
vn 0.5477225723947978 0.6324555062440764 -0.5477225723947978
vn 0.5477225723947978 -0.6324555062440764 0.5477225723947978
vn -0.5477225723947978 0.6324555062440764 -0.5477225723947978
vn 0.5477225723947978 -0.6324555062440764 -0.5477225723947978
vn -0.5477225723947978 0.6324555062440764 0.5477225723947978
vn -0.4082479571304966 -0.8164969142608882 -0.4082479571304966
vn 0.4082479571304966 0.8164969142608882 0.4082479571304966
vn -0.4082479571304966 -0.8164969142608882 0.4082479571304966
vn 0.4082479571304966 0.8164969142608882 -0.4082479571304966
vn 0.4082479571304966 -0.8164969142608882 0.4082479571304966
vn -0.4082479571304966 0.8164969142608882 -0.4082479571304966
vn 0.4082479571304966 -0.8164969142608882 -0.4082479571304966
vn -0.4082479571304966 0.8164969142608882 0.4082479571304966
vn 0.26726105924617094 -0.92582020523492 -0.26726105924617094
vn -0.26726105924617094 0.92582020523492 0.26726105924617094
vn -0.26726105924617094 -0.92582020523492 -0.26726105924617094
vn 0.26726105924617094 0.92582020523492 0.26726105924617094
vn -0.26726105924617094 -0.92582020523492 0.26726105924617094
vn 0.26726105924617094 0.92582020523492 -0.26726105924617094
vn 0.26726105924617094 -0.92582020523492 0.26726105924617094
vn -0.26726105924617094 0.92582020523492 -0.26726105924617094
vn 0.13163299711868537 -0.9825199784936204 -0.13163299711868537
vn -0.13163299711868537 0.9825199784936204 0.13163299711868537
vn -0.13163299711868537 -0.9825199784936204 -0.13163299711868537
vn 0.13163299711868537 0.9825199784936204 0.13163299711868537
vn -0.13163299711868537 -0.9825199784936204 0.13163299711868537
vn 0.13163299711868537 0.9825199784936204 -0.13163299711868537
vn 0.13163299711868537 -0.9825199784936204 0.13163299711868537
vn -0.13163299711868537 0.9825199784936204 -0.13163299711868537
vn 0.06554299007931547 -0.9956948492901455 -0.06554299007931547
vn -0.06554299007931547 0.9956948492901455 0.06554299007931547
vn -0.06554299007931547 -0.9956948492901455 -0.06554299007931547
vn 0.06554299007931547 0.9956948492901455 0.06554299007931547
vn -0.06554299007931547 -0.9956948492901455 0.06554299007931547
vn 0.06554299007931547 0.9956948492901455 -0.06554299007931547
vn 0.06554299007931547 -0.9956948492901455 0.06554299007931547
vn -0.06554299007931547 0.9956948492901455 -0.06554299007931547
usemtl material_0_0
f 1//1 2//1 3//1
f 2//1 1//1 4//1
f 3//2 2//2 1//2
f 4//2 1//2 2//2
f 2//3 5//3 3//3
f 3//4 5//4 2//4
f 5//5 1//5 3//5
f 3//6 1//6 5//6
f 1//4 6//4 4//4
f 4//3 6//3 1//3
f 6//6 2//6 4//6
f 4//5 2//5 6//5
f 5//3 2//3 7//3
f 7//4 2//4 5//4
f 1//5 5//5 8//5
f 8//6 5//6 1//6
f 6//4 1//4 8//4
f 8//3 1//3 6//3
f 2//6 6//6 7//6
f 7//5 6//5 2//5
f 7//7 9//8 5//9
f 5//10 9//11 7//12
f 9//8 8//13 5//9
f 5//10 8//14 9//11
f 10//15 6//16 8//13
f 8//14 6//17 10//18
f 11//19 7//7 6//16
f 6//17 7//12 11//20
f 9//8 7//7 12//21
f 12//22 7//12 9//11
f 8//13 9//8 10//15
f 10//18 9//11 8//14
f 6//16 10//15 11//19
f 11//20 10//18 6//17
f 7//7 11//19 12//21
f 12//22 11//20 7//12
f 12//21 13//23 9//8
f 9//11 13//24 12//22
f 13//23 10//15 9//8
f 9//11 10//18 13//24
f 14//25 11//19 10//15
f 10//18 11//20 14//26
f 15//27 12//21 11//19
f 11//20 12//22 15//28
f 13//23 12//21 16//29
f 16//30 12//22 13//24
f 10//15 13//23 14//25
f 14//26 13//24 10//18
f 11//19 14//25 15//27
f 15//28 14//26 11//20
f 12//21 15//27 16//29
f 16//30 15//28 12//22
f 16//29 17//31 13//23
f 13//24 17//32 16//30
f 17//31 14//25 13//23
f 13//24 14//26 17//32
f 18//33 15//27 14//25
f 14//26 15//28 18//34
f 19//35 16//29 15//27
f 15//28 16//30 19//36
f 17//31 16//29 20//37
f 20//38 16//30 17//32
f 14//25 17//31 18//33
f 18//34 17//32 14//26
f 15//27 18//33 19//35
f 19//36 18//34 15//28
f 16//29 19//35 20//37
f 20//38 19//36 16//30
f 21//39 17//31 20//37
f 20//38 17//32 21//40
f 22//41 18//33 17//31
f 17//32 18//34 22//42
f 23//43 19//35 18//33
f 18//34 19//36 23//44
f 19//35 21//39 20//37
f 20//38 21//40 19//36
f 17//31 21//39 22//41
f 22//42 21//40 17//32
f 18//33 22//41 23//43
f 23//44 22//42 18//34
f 19//35 23//43 24//45
f 24//46 23//44 19//36
f 21//39 19//35 24//45
f 24//46 19//36 21//40
f 25//47 22//41 21//39
f 21//40 22//42 25//48
f 26//49 23//43 22//41
f 22//42 23//44 26//50
f 27//51 24//45 23//43
f 23//44 24//46 27//52
f 24//45 25//47 21//39
f 21//40 25//48 24//46
f 22//41 25//47 26//49
f 26//50 25//48 22//42
f 23//43 26//49 27//51
f 27//52 26//50 23//44
f 24//45 27//51 28//53
f 28//54 27//52 24//46
f 25//47 24//45 28//53
f 28//54 24//46 25//48
f 29//55 26//49 25//47
f 25//48 26//50 29//56
f 30//57 27//51 26//49
f 26//50 27//52 30//58
f 31//59 28//53 27//51
f 27//52 28//54 31//60
f 28//53 29//55 25//47
f 25//48 29//56 28//54
f 26//49 29//55 30//57
f 30//58 29//56 26//50
f 27//51 30//57 31//59
f 31//60 30//58 27//52
f 28//53 31//59 32//61
f 32//62 31//60 28//54
f 29//55 28//53 32//61
f 32//62 28//54 29//56
f 32//2 30//2 29//2
f 29//1 30//1 32//1
f 30//2 32//2 31//2
f 31//1 32//1 30//1
