# SSTK version 0.8.0
# 39
mtllib original-39.mtl
o Group35/mesh58/mesh58-geometry#mesh58-geometry
v 0.412584 -0.307516 0.231808
v -0.022605 -0.479301 0.231808
v -0.022605 -0.307516 0.231808
v 0.412584 -0.479301 0.231808
v -0.022215 -0.478911 0.234772
v -0.022215 -0.307906 0.234772
v 0.412193 -0.478911 0.234772
v 0.412193 -0.307906 0.234772
v -0.021071 -0.477767 0.237534
v 0.411049 -0.477767 0.237534
v -0.021071 -0.309050 0.237534
v 0.411049 -0.309050 0.237534
v -0.019251 -0.475947 0.239906
v 0.409229 -0.475947 0.239906
v -0.019251 -0.310870 0.239906
v 0.409229 -0.310870 0.239906
v -0.016879 -0.473575 0.241726
v -0.016879 -0.313242 0.241726
v 0.406857 -0.313242 0.241726
v 0.406857 -0.473575 0.241726
v -0.014117 -0.470813 0.242870
v -0.014117 -0.316004 0.242870
v 0.404095 -0.316004 0.242870
v 0.404095 -0.470813 0.242870
v -0.011153 -0.467849 0.243260
v -0.011153 -0.318968 0.243260
v 0.401131 -0.318968 0.243260
v 0.401131 -0.467849 0.243260
vt -1.009517 0.302084
vt 0 0
vt 0 0.302084
vt -1.009517 0
vt 0.006935 0.000686
vt 0.000905 0.034173
vt 1.009517 0.03943
vt 0 0.03943
vt 0.131768 0.302084
vt 0.124833 0.000686
vt 0.131768 0
vt 1.008611 0.005257
vt 1.009517 0
vt 0.006935 0.301398
vt 0.000905 0.005257
vt 1.008611 0.034173
vt 0.124833 0.301398
vt 0.013634 0.002698
vt 0.006699 0.301398
vt 0.006699 0.000686
vt 1.005957 0.010335
vt 0.000905 0.005078
vt 1.008611 0.005078
vt 0.003559 0.105267
vt 1.008611 0.110524
vt 0.000905 0.110524
vt 0.379626 0.301398
vt 0.372691 0.002698
vt 0.379626 0.000686
vt 0.013634 0.299386
vt 0.003559 0.010335
vt 1.005957 0.105267
vt 0.372691 0.299386
vt 0.01964 0.005899
vt 0.012705 0.299386
vt 0.012705 0.002698
vt 1.001735 0.014888
vt 0.003559 0.009631
vt 1.005957 0.009631
vt 0.007781 0.169009
vt 1.005957 0.174266
vt 0.003559 0.174266
vt 0.60185 0.299386
vt 0.594915 0.005899
vt 0.60185 0.002698
vt 0.01964 0.296185
vt 0.007781 0.014888
vt 1.001735 0.169009
vt 0.594915 0.296185
vt 0.024544 0.010069
vt 0.017609 0.296185
vt 0.017609 0.005899
vt 1.001735 0.013349
vt 0.013283 0.018606
vt 0.007781 0.013349
vt 0.013283 0.221053
vt 1.001735 0.226311
vt 0.007781 0.226311
vt 0.776359 0.292014
vt 0.783295 0.005899
vt 0.783295 0.296185
vt 0.024544 0.292014
vt 0.996233 0.018606
vt 0.996233 0.221053
vt 0.776359 0.010069
vt 0.028012 0.014927
vt 0.021076 0.292014
vt 0.021076 0.010069
vt 0.996233 0.015977
vt 0.01969 0.021235
vt 0.013283 0.015977
vt 0.01969 0.257855
vt 0.996233 0.263112
vt 0.013283 0.263112
vt 0.90466 0.287157
vt 0.911595 0.010069
vt 0.911595 0.292014
vt 0.028012 0.287157
vt 0.989826 0.021235
vt 0.989826 0.257855
vt 0.90466 0.014927
vt 0.029807 0.020139
vt 0.022871 0.287157
vt 0.022871 0.014927
vt 0.989826 0.017338
vt 0.026566 0.022595
vt 0.01969 0.017338
vt 0.026566 0.276904
vt 0.989826 0.282162
vt 0.01969 0.282162
vt 0.971073 0.281945
vt 0.978009 0.014927
vt 0.978009 0.287157
vt 0.029807 0.281945
vt 0.98295 0.022595
vt 0.98295 0.276904
vt 0.971073 0.020139
vt 0.98295 0.020139
vt 0.026566 0.281945
vt 0.026566 0.020139
vt 0.98295 0.281945
vn 0 0 -1
vn 0 0 1
vn -0.6612249289014628 -0.6612249289014628 0.35434896189845283
vn -0.6951606846185294 0.6951606846185294 0.18303891695864843
vn -0.6951606846185294 -0.6951606846185294 0.18303891695864843
vn 0.6951606846185294 0.6951606846185294 -0.18303891695864843
vn 0.6951606846185294 -0.6951606846185294 -0.18303891695864843
vn 0.6612249289014628 0.6612249289014628 -0.35434896189845283
vn -0.6612249289014628 0.6612249289014628 0.35434896189845283
vn 0.6951606846185294 0.6951606846185294 0.18303891695864843
vn -0.6951606846185294 -0.6951606846185294 -0.18303891695864843
vn 0.6612249289014628 -0.6612249289014628 -0.35434896189845283
vn 0.6612249289014628 -0.6612249289014628 0.35434896189845283
vn 0.6951606846185294 -0.6951606846185294 0.18303891695864843
vn -0.6951606846185294 0.6951606846185294 -0.18303891695864843
vn -0.6612249289014628 0.6612249289014628 -0.35434896189845283
vn 0.6612249289014628 0.6612249289014628 0.35434896189845283
vn -0.6612249289014628 -0.6612249289014628 -0.35434896189845283
vn -0.5477225723947978 -0.5477225723947978 0.6324555062440764
vn 0.5477225723947978 0.5477225723947978 -0.6324555062440764
vn 0.5477225723947978 -0.5477225723947978 0.6324555062440764
vn -0.5477225723947978 0.5477225723947978 -0.6324555062440764
vn -0.5477225723947978 0.5477225723947978 0.6324555062440764
vn 0.5477225723947978 -0.5477225723947978 -0.6324555062440764
vn 0.5477225723947978 0.5477225723947978 0.6324555062440764
vn -0.5477225723947978 -0.5477225723947978 -0.6324555062440764
vn -0.4082479571304966 -0.4082479571304966 0.8164969142608882
vn 0.4082479571304966 0.4082479571304966 -0.8164969142608882
vn 0.4082479571304966 -0.4082479571304966 0.8164969142608882
vn -0.4082479571304966 0.4082479571304966 -0.8164969142608882
vn -0.4082479571304966 0.4082479571304966 0.8164969142608882
vn 0.4082479571304966 -0.4082479571304966 -0.8164969142608882
vn 0.4082479571304966 0.4082479571304966 0.8164969142608882
vn -0.4082479571304966 -0.4082479571304966 -0.8164969142608882
vn -0.26726105924617094 -0.26726105924617094 0.92582020523492
vn 0.26726105924617094 0.26726105924617094 -0.92582020523492
vn -0.26726105924617094 0.26726105924617094 0.92582020523492
vn 0.26726105924617094 -0.26726105924617094 -0.92582020523492
vn 0.26726105924617094 0.26726105924617094 0.92582020523492
vn -0.26726105924617094 -0.26726105924617094 -0.92582020523492
vn 0.26726105924617094 -0.26726105924617094 0.92582020523492
vn -0.26726105924617094 0.26726105924617094 -0.92582020523492
vn -0.13163299711868537 -0.13163299711868537 0.9825199784936204
vn 0.13163299711868537 0.13163299711868537 -0.9825199784936204
vn -0.13163299711868537 0.13163299711868537 0.9825199784936204
vn 0.13163299711868537 -0.13163299711868537 -0.9825199784936204
vn 0.13163299711868537 0.13163299711868537 0.9825199784936204
vn -0.13163299711868537 -0.13163299711868537 -0.9825199784936204
vn 0.13163299711868537 -0.13163299711868537 0.9825199784936204
vn -0.13163299711868537 0.13163299711868537 -0.9825199784936204
vn -0.06554299007931547 -0.06554299007931547 0.9956948492901455
vn 0.06554299007931547 0.06554299007931547 -0.9956948492901455
vn -0.06554299007931547 0.06554299007931547 0.9956948492901455
vn 0.06554299007931547 -0.06554299007931547 -0.9956948492901455
vn 0.06554299007931547 0.06554299007931547 0.9956948492901455
vn -0.06554299007931547 -0.06554299007931547 -0.9956948492901455
vn 0.06554299007931547 -0.06554299007931547 0.9956948492901455
vn -0.06554299007931547 0.06554299007931547 -0.9956948492901455
usemtl material_0_0
f 1/1/1 2/2/1 3/3/1
f 2/2/1 1/1/1 4/4/1
f 3/3/2 2/2/2 1/1/2
f 4/4/2 1/1/2 2/2/2
f 5/5/3 3/3/4 2/2/5
f 2/2/6 3/3/7 5/5/8
f 6/6/9 1/7/10 3/8/4
f 3/8/7 1/7/11 6/6/12
f 1/9/10 7/10/13 4/11/14
f 4/11/15 7/10/16 1/9/11
f 7/12/13 2/2/5 4/13/14
f 4/13/15 2/2/6 7/12/16
f 3/3/4 5/5/3 6/14/9
f 6/14/12 5/5/8 3/3/7
f 2/2/5 7/12/13 5/15/3
f 5/15/8 7/12/16 2/2/6
f 1/7/10 6/6/9 8/16/17
f 8/16/18 6/6/12 1/7/11
f 7/10/13 1/9/10 8/17/17
f 8/17/18 1/9/11 7/10/16
f 9/18/19 6/19/9 5/20/3
f 5/20/8 6/19/12 9/18/20
f 10/21/21 5/22/3 7/23/13
f 7/23/16 5/22/8 10/21/22
f 11/24/23 8/25/17 6/26/9
f 6/26/12 8/25/18 11/24/24
f 8/27/17 10/28/21 7/29/13
f 7/29/16 10/28/22 8/27/18
f 6/19/9 9/18/19 11/30/23
f 11/30/24 9/18/20 6/19/12
f 5/22/3 10/21/21 9/31/19
f 9/31/20 10/21/22 5/22/8
f 8/25/17 11/24/23 12/32/25
f 12/32/26 11/24/24 8/25/18
f 10/28/21 8/27/17 12/33/25
f 12/33/26 8/27/18 10/28/22
f 13/34/27 11/35/23 9/36/19
f 9/36/20 11/35/24 13/34/28
f 14/37/29 9/38/19 10/39/21
f 10/39/22 9/38/20 14/37/30
f 15/40/31 12/41/25 11/42/23
f 11/42/24 12/41/26 15/40/32
f 12/43/25 14/44/29 10/45/21
f 10/45/22 14/44/30 12/43/26
f 11/35/23 13/34/27 15/46/31
f 15/46/32 13/34/28 11/35/24
f 9/38/19 14/37/29 13/47/27
f 13/47/28 14/37/30 9/38/20
f 12/41/25 15/40/31 16/48/33
f 16/48/34 15/40/32 12/41/26
f 14/44/29 12/43/25 16/49/33
f 16/49/34 12/43/26 14/44/30
f 17/50/35 15/51/31 13/52/27
f 13/52/28 15/51/32 17/50/36
f 14/53/29 17/54/35 13/55/27
f 13/55/28 17/54/36 14/53/30
f 18/56/37 16/57/33 15/58/31
f 15/58/32 16/57/34 18/56/38
f 19/59/39 14/60/29 16/61/33
f 16/61/34 14/60/30 19/59/40
f 15/51/31 17/50/35 18/62/37
f 18/62/38 17/50/36 15/51/32
f 17/54/35 14/53/29 20/63/41
f 20/63/42 14/53/30 17/54/36
f 16/57/33 18/56/37 19/64/39
f 19/64/40 18/56/38 16/57/34
f 14/60/29 19/59/39 20/65/41
f 20/65/42 19/59/40 14/60/30
f 21/66/43 18/67/37 17/68/35
f 17/68/36 18/67/38 21/66/44
f 20/69/41 21/70/43 17/71/35
f 17/71/36 21/70/44 20/69/42
f 22/72/45 19/73/39 18/74/37
f 18/74/38 19/73/40 22/72/46
f 23/75/47 20/76/41 19/77/39
f 19/77/40 20/76/42 23/75/48
f 18/67/37 21/66/43 22/78/45
f 22/78/46 21/66/44 18/67/38
f 21/70/43 20/69/41 24/79/49
f 24/79/50 20/69/42 21/70/44
f 19/73/39 22/72/45 23/80/47
f 23/80/48 22/72/46 19/73/40
f 20/76/41 23/75/47 24/81/49
f 24/81/50 23/75/48 20/76/42
f 25/82/51 22/83/45 21/84/43
f 21/84/44 22/83/46 25/82/52
f 24/85/49 25/86/51 21/87/43
f 21/87/44 25/86/52 24/85/50
f 26/88/53 23/89/47 22/90/45
f 22/90/46 23/89/48 26/88/54
f 27/91/55 24/92/49 23/93/47
f 23/93/48 24/92/50 27/91/56
f 22/83/45 25/82/51 26/94/53
f 26/94/54 25/82/52 22/83/46
f 25/86/51 24/85/49 28/95/57
f 28/95/58 24/85/50 25/86/52
f 23/89/47 26/88/53 27/96/55
f 27/96/56 26/88/54 23/89/48
f 24/92/49 27/91/55 28/97/57
f 28/97/58 27/91/56 24/92/50
f 28/98/2 26/99/2 25/100/2
f 25/100/1 26/99/1 28/98/1
f 26/99/2 28/98/2 27/101/2
f 27/101/1 28/98/1 26/99/1
