# SSTK version 0.8.0
# 85
mtllib original-85.mtl
o Group70/mesh130/mesh130-geometry#mesh130-geometry
v -0.583769 -0.622455 -0.089425
v -0.583769 -0.679717 -0.129508
v -0.583769 -0.679717 -0.089425
v -0.583769 -0.622455 -0.129508
v -0.583574 -0.681199 -0.129313
v -0.543686 -0.679717 -0.089425
v -0.583574 -0.620973 -0.089620
v -0.543686 -0.622455 -0.129508
v -0.583574 -0.681199 -0.089620
v -0.543686 -0.679717 -0.129508
v -0.543686 -0.622455 -0.089425
v -0.583574 -0.620973 -0.129313
v -0.583002 -0.682580 -0.128741
v -0.543881 -0.681199 -0.129313
v -0.543881 -0.681199 -0.089620
v -0.583002 -0.619592 -0.090192
v -0.543881 -0.620973 -0.089620
v -0.543881 -0.620973 -0.129313
v -0.583002 -0.682580 -0.090192
v -0.583002 -0.619592 -0.128741
v -0.582092 -0.683766 -0.127831
v -0.544453 -0.682580 -0.128741
v -0.544453 -0.682580 -0.090192
v -0.582092 -0.618406 -0.091102
v -0.544453 -0.619592 -0.090192
v -0.544453 -0.619592 -0.128741
v -0.582092 -0.683766 -0.091102
v -0.582092 -0.618406 -0.127831
v -0.580906 -0.684676 -0.126645
v -0.545363 -0.683766 -0.127831
v -0.545363 -0.683766 -0.091102
v -0.580906 -0.617496 -0.126645
v -0.545363 -0.618406 -0.091102
v -0.545363 -0.618406 -0.127831
v -0.580906 -0.684676 -0.092288
v -0.546549 -0.684676 -0.126645
v -0.580906 -0.617496 -0.092288
v -0.546549 -0.617496 -0.092288
v -0.579525 -0.685248 -0.125264
v -0.547930 -0.685248 -0.125264
v -0.546549 -0.684676 -0.092288
v -0.579525 -0.616924 -0.125264
v -0.546549 -0.617496 -0.126645
v -0.579525 -0.685248 -0.093669
v -0.547930 -0.616924 -0.093669
v -0.579525 -0.616924 -0.093669
v -0.547930 -0.616924 -0.125264
v -0.578043 -0.685443 -0.123782
v -0.549412 -0.685443 -0.123782
v -0.547930 -0.685248 -0.093669
v -0.578043 -0.616729 -0.123782
v -0.578043 -0.685443 -0.095151
v -0.549412 -0.616729 -0.095151
v -0.549412 -0.616729 -0.123782
v -0.578043 -0.616729 -0.095151
v -0.549412 -0.685443 -0.095151
vn -1 0 0
vn 1 0 0
vn -0.6612249289014628 -0.35434896189845283 -0.6612249289014628
vn -0.6951606846185294 -0.18303891695864843 0.6951606846185294
vn -0.6951606846185294 -0.18303891695864843 -0.6951606846185294
vn 0.6951606846185294 0.18303891695864843 0.6951606846185294
vn 0.6951606846185294 0.18303891695864843 -0.6951606846185294
vn 0.6612249289014628 0.35434896189845283 0.6612249289014628
vn 0 0 1
vn 0 0 -1
vn -0.6612249289014628 0.35434896189845283 0.6612249289014628
vn -0.6951606846185294 0.18303891695864843 -0.6951606846185294
vn -0.6951606846185294 0.18303891695864843 0.6951606846185294
vn 0.6951606846185294 -0.18303891695864843 -0.6951606846185294
vn 0.6951606846185294 -0.18303891695864843 0.6951606846185294
vn 0.6612249289014628 -0.35434896189845283 -0.6612249289014628
vn -0.6612249289014628 -0.35434896189845283 0.6612249289014628
vn 0.6612249289014628 0.35434896189845283 -0.6612249289014628
vn -0.6612249289014628 0.35434896189845283 -0.6612249289014628
vn 0.6612249289014628 -0.35434896189845283 0.6612249289014628
vn -0.5477225723947978 -0.6324555062440764 -0.5477225723947978
vn 0.5477225723947978 0.6324555062440764 0.5477225723947978
vn -0.5477225723947978 0.6324555062440764 0.5477225723947978
vn 0.5477225723947978 -0.6324555062440764 -0.5477225723947978
vn -0.5477225723947978 -0.6324555062440764 0.5477225723947978
vn 0.5477225723947978 0.6324555062440764 -0.5477225723947978
vn -0.5477225723947978 0.6324555062440764 -0.5477225723947978
vn 0.5477225723947978 -0.6324555062440764 0.5477225723947978
vn -0.4082479571304966 -0.8164969142608882 -0.4082479571304966
vn 0.4082479571304966 0.8164969142608882 0.4082479571304966
vn -0.4082479571304966 0.8164969142608882 0.4082479571304966
vn 0.4082479571304966 -0.8164969142608882 -0.4082479571304966
vn -0.4082479571304966 -0.8164969142608882 0.4082479571304966
vn 0.4082479571304966 0.8164969142608882 -0.4082479571304966
vn -0.4082479571304966 0.8164969142608882 -0.4082479571304966
vn 0.4082479571304966 -0.8164969142608882 0.4082479571304966
vn -0.26726105924617094 -0.92582020523492 -0.26726105924617094
vn 0.26726105924617094 0.92582020523492 0.26726105924617094
vn -0.26726105924617094 0.92582020523492 -0.26726105924617094
vn 0.26726105924617094 -0.92582020523492 0.26726105924617094
vn -0.26726105924617094 -0.92582020523492 0.26726105924617094
vn 0.26726105924617094 0.92582020523492 -0.26726105924617094
vn 0.26726105924617094 -0.92582020523492 -0.26726105924617094
vn -0.26726105924617094 0.92582020523492 0.26726105924617094
vn -0.13163299711868537 -0.9825199784936204 -0.13163299711868537
vn 0.13163299711868537 0.9825199784936204 0.13163299711868537
vn 0.13163299711868537 -0.9825199784936204 -0.13163299711868537
vn -0.13163299711868537 0.9825199784936204 0.13163299711868537
vn -0.13163299711868537 0.9825199784936204 -0.13163299711868537
vn 0.13163299711868537 -0.9825199784936204 0.13163299711868537
vn -0.13163299711868537 -0.9825199784936204 0.13163299711868537
vn 0.13163299711868537 0.9825199784936204 -0.13163299711868537
vn -0.06554299007931547 -0.9956948492901455 -0.06554299007931547
vn 0.06554299007931547 0.9956948492901455 0.06554299007931547
vn 0.06554299007931547 -0.9956948492901455 -0.06554299007931547
vn -0.06554299007931547 0.9956948492901455 0.06554299007931547
vn -0.06554299007931547 0.9956948492901455 -0.06554299007931547
vn 0.06554299007931547 -0.9956948492901455 0.06554299007931547
vn -0.06554299007931547 -0.9956948492901455 0.06554299007931547
vn 0.06554299007931547 0.9956948492901455 -0.06554299007931547
vn 0 -1 0
vn 0 1 0
usemtl material_0_0
f 1//1 2//1 3//1
f 2//1 1//1 4//1
f 3//2 2//2 1//2
f 4//2 1//2 2//2
f 5//3 3//4 2//5
f 2//6 3//7 5//8
f 6//9 1//9 3//9
f 3//10 1//10 6//10
f 7//11 4//12 1//13
f 1//14 4//15 7//16
f 8//10 2//10 4//10
f 4//9 2//9 8//9
f 3//4 5//3 9//17
f 9//18 5//8 3//7
f 10//14 5//3 2//5
f 2//6 5//8 10//13
f 1//9 6//9 11//9
f 11//10 6//10 1//10
f 9//17 6//15 3//4
f 3//7 6//12 9//18
f 4//12 7//11 12//19
f 12//20 7//16 4//15
f 11//6 7//11 1//13
f 1//14 7//16 11//5
f 2//10 8//10 10//10
f 10//9 8//9 2//9
f 12//19 8//7 4//12
f 4//15 8//4 12//20
f 13//21 9//17 5//3
f 5//8 9//18 13//22
f 5//3 10//14 14//16
f 14//11 10//13 5//8
f 6//2 8//2 11//2
f 11//1 8//1 6//1
f 6//15 9//17 15//20
f 15//19 9//18 6//12
f 16//23 12//19 7//11
f 7//16 12//20 16//24
f 7//11 11//6 17//8
f 17//3 11//5 7//16
f 8//2 6//2 10//2
f 10//1 6//1 8//1
f 8//7 12//19 18//18
f 18//17 12//20 8//4
f 9//17 13//21 19//25
f 19//26 13//22 9//18
f 14//16 13//21 5//3
f 5//8 13//22 14//11
f 10//14 15//20 14//16
f 14//11 15//19 10//13
f 18//18 11//6 8//7
f 8//4 11//5 18//17
f 19//25 15//20 9//17
f 9//18 15//19 19//26
f 15//20 10//14 6//15
f 6//12 10//13 15//19
f 12//19 16//23 20//27
f 20//28 16//24 12//20
f 17//8 16//23 7//11
f 7//16 16//24 17//3
f 11//6 18//18 17//8
f 17//3 18//17 11//5
f 20//27 18//18 12//19
f 12//20 18//17 20//28
f 21//29 19//25 13//21
f 13//22 19//26 21//30
f 13//21 14//16 22//24
f 22//23 14//11 13//22
f 23//28 14//16 15//20
f 15//19 14//11 23//27
f 15//20 19//25 23//28
f 23//27 19//26 15//19
f 24//31 20//27 16//23
f 16//24 20//28 24//32
f 16//23 17//8 25//22
f 25//21 17//3 16//24
f 26//26 17//8 18//18
f 18//17 17//3 26//25
f 18//18 20//27 26//26
f 26//25 20//28 18//17
f 19//25 21//29 27//33
f 27//34 21//30 19//26
f 22//24 21//29 13//21
f 13//22 21//30 22//23
f 14//16 23//28 22//24
f 22//23 23//27 14//11
f 27//33 23//28 19//25
f 19//26 23//27 27//34
f 20//27 24//31 28//35
f 28//36 24//32 20//28
f 25//22 24//31 16//23
f 16//24 24//32 25//21
f 17//8 26//26 25//22
f 25//21 26//25 17//3
f 28//35 26//26 20//27
f 20//28 26//25 28//36
f 29//37 27//33 21//29
f 21//30 27//34 29//38
f 21//29 22//24 30//32
f 30//31 22//23 21//30
f 31//36 22//24 23//28
f 23//27 22//23 31//35
f 23//28 27//33 31//36
f 31//35 27//34 23//27
f 24//31 32//39 28//35
f 28//36 32//40 24//32
f 24//31 25//22 33//30
f 33//29 25//21 24//32
f 34//34 25//22 26//26
f 26//25 25//21 34//33
f 26//26 28//35 34//34
f 34//33 28//36 26//25
f 27//33 29//37 35//41
f 35//42 29//38 27//34
f 21//29 36//43 29//37
f 29//38 36//44 21//30
f 22//24 31//36 30//32
f 30//31 31//35 22//23
f 36//43 21//29 30//32
f 30//31 21//30 36//44
f 35//41 31//36 27//33
f 27//34 31//35 35//42
f 32//39 24//31 37//44
f 37//43 24//32 32//40
f 32//39 34//34 28//35
f 28//36 34//33 32//40
f 25//22 34//34 33//30
f 33//29 34//33 25//21
f 38//38 24//31 33//30
f 33//29 24//32 38//37
f 39//45 35//41 29//37
f 29//38 35//42 39//46
f 40//47 29//37 36//43
f 36//44 29//38 40//48
f 31//36 36//43 30//32
f 30//31 36//44 31//35
f 31//36 35//41 41//40
f 41//39 35//42 31//35
f 24//31 38//38 37//44
f 37//43 38//37 24//32
f 37//44 42//49 32//39
f 32//40 42//50 37//43
f 34//34 32//39 43//42
f 43//41 32//40 34//33
f 43//42 33//30 34//34
f 34//33 33//29 43//41
f 33//30 43//42 38//38
f 38//37 43//41 33//29
f 35//41 39//45 44//51
f 44//52 39//46 35//42
f 29//37 40//47 39//45
f 39//46 40//48 29//38
f 41//40 40//47 36//43
f 36//44 40//48 41//39
f 36//43 31//36 41//40
f 41//39 31//35 36//44
f 44//51 41//40 35//41
f 35//42 41//39 44//52
f 45//46 37//44 38//38
f 38//37 37//43 45//45
f 42//49 37//44 46//48
f 46//47 37//43 42//50
f 42//49 43//42 32//39
f 32//40 43//41 42//50
f 47//52 38//38 43//42
f 43//41 38//37 47//51
f 48//53 44//51 39//45
f 39//46 44//52 48//54
f 49//55 39//45 40//47
f 40//48 39//46 49//56
f 40//47 41//40 50//50
f 50//49 41//39 40//48
f 41//40 44//51 50//50
f 50//49 44//52 41//39
f 37//44 45//46 46//48
f 46//47 45//45 37//43
f 38//38 47//52 45//46
f 45//45 47//51 38//37
f 46//48 51//57 42//49
f 42//50 51//58 46//47
f 43//42 42//49 47//52
f 47//51 42//50 43//41
f 44//51 48//53 52//59
f 52//60 48//54 44//52
f 39//45 49//55 48//53
f 48//54 49//56 39//46
f 50//50 49//55 40//47
f 40//48 49//56 50//49
f 52//59 50//50 44//51
f 44//52 50//49 52//60
f 53//54 46//48 45//46
f 45//45 46//47 53//53
f 54//60 45//46 47//52
f 47//51 45//45 54//59
f 51//57 46//48 55//56
f 55//55 46//47 51//58
f 51//57 47//52 42//49
f 42//50 47//51 51//58
f 48//61 56//61 52//61
f 52//62 56//62 48//62
f 56//61 48//61 49//61
f 49//62 48//62 56//62
f 49//55 50//50 56//58
f 56//57 50//49 49//56
f 50//50 52//59 56//58
f 56//57 52//60 50//49
f 46//48 53//54 55//56
f 55//55 53//53 46//47
f 45//46 54//60 53//54
f 53//53 54//59 45//45
f 47//52 51//57 54//60
f 54//59 51//58 47//51
f 55//62 54//62 51//62
f 51//61 54//61 55//61
f 54//62 55//62 53//62
f 53//61 55//61 54//61
