# SSTK version 0.8.0
# 6
mtllib original-6.mtl
o Group6/mesh9/mesh9-geometry#mesh9-geometry
v 0.284501 0.772027 0.101585
v 0.197186 0.779825 0.084407
v 0.284501 0.772027 0.084407
v 0.197186 0.779825 0.101585
v 0.284501 0.846467 0.084407
v 0.371588 0.762009 0.101585
v 0.284501 0.846467 0.101585
v 0.109702 0.785399 0.084407
v 0.197186 0.854265 0.084407
v 0.371588 0.836449 0.084407
v 0.371588 0.762009 0.084407
v 0.371588 0.836449 0.101585
v 0.197186 0.854265 0.101585
v 0.109702 0.785399 0.101585
v 0.458393 0.749778 0.101585
v 0.458393 0.824218 0.101585
v 0.022104 0.788745 0.084407
v 0.109702 0.859839 0.084407
v 0.109702 0.859839 0.101585
v 0.458393 0.824218 0.084407
v 0.458393 0.749778 0.084407
v 0.022104 0.788745 0.101585
v -0.065551 0.789861 0.084407
v 0.022104 0.863185 0.084407
v 0.022104 0.863185 0.101585
v -0.065551 0.789861 0.101585
v -0.153206 0.788745 0.084407
v -0.065551 0.864301 0.084407
v -0.065551 0.864301 0.101585
v -0.153206 0.788745 0.101585
v -0.240804 0.785399 0.084407
v -0.153206 0.863185 0.084407
v -0.153206 0.863185 0.101585
v -0.240804 0.785399 0.101585
v -0.328289 0.779825 0.084407
v -0.240804 0.859839 0.084407
v -0.240804 0.859839 0.101585
v -0.328289 0.779825 0.101585
v -0.415603 0.772027 0.084407
v -0.328289 0.854265 0.084407
v -0.328289 0.854265 0.101585
v -0.415603 0.772027 0.101585
v -0.502691 0.762009 0.084407
v -0.415603 0.846467 0.084407
v -0.415603 0.846467 0.101585
v -0.502691 0.762009 0.101585
v -0.589495 0.749778 0.084407
v -0.502691 0.836449 0.084407
v -0.502691 0.836449 0.101585
v -0.589495 0.749778 0.101585
v -0.589495 0.824218 0.101585
v -0.589495 0.824218 0.084407
vn -0.10163002700391481 -0.9948222643322694 0
vn -0.07628003318960222 -0.997086433834396 0
vn 0.10163002700391481 0.9948222643322694 0
vn 0.07628003318960222 0.997086433834396 0
vn 0 0 -1
vn 0 0 1
vn -0.12691298140947055 -0.9919138547019893 0
vn 0.12691298140947055 0.9919138547019893 0
vn -0.05088098592667741 -0.9987047237653026 0
vn 0.05088098592667741 0.9987047237653026 0
vn -0.13952605635458554 -0.9902183999492924 0
vn 0.13952605635458554 0.9902183999492924 0
vn -0.02544900309743653 -0.9996761216720876 0
vn 0.02544900309743653 0.9996761216720876 0
vn 1 0 0
vn -1 0 0
vn 0 -1 0
vn 0 1 0
vn 0.02544900309743653 -0.9996761216720876 0
vn -0.02544900309743653 0.9996761216720876 0
vn 0.05088098592667741 -0.9987047237653026 0
vn -0.05088098592667741 0.9987047237653026 0
vn 0.07628003318960222 -0.997086433834396 0
vn -0.07628003318960222 0.997086433834396 0
vn 0.10163002700391481 -0.9948222643322694 0
vn -0.10163002700391481 0.9948222643322694 0
vn 0.12691298140947055 -0.9919138547019893 0
vn -0.12691298140947055 0.9919138547019893 0
vn 0.13952605635458554 -0.9902183999492924 0
vn -0.13952605635458554 0.9902183999492924 0
usemtl material_0_0
f 1//1 2//2 3//1
f 2//2 1//1 4//2
f 3//3 2//4 1//3
f 4//4 1//3 2//4
f 2//5 5//5 3//5
f 3//6 5//6 2//6
f 3//1 6//7 1//1
f 1//3 6//8 3//3
f 7//6 4//6 1//6
f 1//5 4//5 7//5
f 4//2 8//9 2//2
f 2//4 8//10 4//4
f 2//5 9//5 5//5
f 5//6 9//6 2//6
f 3//5 5//5 10//5
f 10//6 5//6 3//6
f 6//7 3//1 11//7
f 11//8 3//3 6//8
f 12//6 1//6 6//6
f 6//5 1//5 12//5
f 13//6 4//6 7//6
f 7//5 4//5 13//5
f 7//6 1//6 12//6
f 12//5 1//5 7//5
f 8//9 4//2 14//9
f 14//10 4//4 8//10
f 8//5 9//5 2//5
f 2//6 9//6 8//6
f 13//4 5//3 9//4
f 9//2 5//1 13//2
f 7//3 10//8 5//3
f 5//1 10//7 7//1
f 3//5 10//5 11//5
f 11//6 10//6 3//6
f 11//7 15//11 6//7
f 6//8 15//12 11//8
f 12//6 6//6 16//6
f 16//5 6//5 12//5
f 13//6 14//6 4//6
f 4//5 14//5 13//5
f 5//3 13//4 7//3
f 7//1 13//2 5//1
f 10//8 7//3 12//8
f 12//7 7//1 10//7
f 14//9 17//13 8//9
f 8//10 17//14 14//10
f 8//5 18//5 9//5
f 9//6 18//6 8//6
f 9//4 19//10 13//4
f 13//2 19//9 9//2
f 11//5 10//5 20//5
f 20//6 10//6 11//6
f 15//11 11//7 21//11
f 21//12 11//8 15//12
f 16//6 6//6 15//6
f 15//5 6//5 16//5
f 20//12 12//8 16//12
f 16//11 12//7 20//11
f 19//6 14//6 13//6
f 13//5 14//5 19//5
f 12//8 20//12 10//8
f 10//7 20//11 12//7
f 17//13 14//9 22//13
f 22//14 14//10 17//14
f 17//5 18//5 8//5
f 8//6 18//6 17//6
f 19//10 9//4 18//10
f 18//9 9//2 19//9
f 11//5 20//5 21//5
f 21//6 20//6 11//6
f 20//15 15//15 21//15
f 21//16 15//16 20//16
f 15//15 20//15 16//15
f 16//16 20//16 15//16
f 19//6 22//6 14//6
f 14//5 22//5 19//5
f 22//13 23//17 17//13
f 17//14 23//18 22//14
f 17//5 24//5 18//5
f 18//6 24//6 17//6
f 18//10 25//14 19//10
f 19//9 25//13 18//9
f 25//6 22//6 19//6
f 19//5 22//5 25//5
f 23//17 22//13 26//17
f 26//18 22//14 23//18
f 23//5 24//5 17//5
f 17//6 24//6 23//6
f 25//14 18//10 24//14
f 24//13 18//9 25//13
f 25//6 26//6 22//6
f 22//5 26//5 25//5
f 26//17 27//19 23//17
f 23//18 27//20 26//18
f 23//5 28//5 24//5
f 24//6 28//6 23//6
f 24//14 29//18 25//14
f 25//13 29//17 24//13
f 29//6 26//6 25//6
f 25//5 26//5 29//5
f 27//19 26//17 30//19
f 30//20 26//18 27//20
f 27//5 28//5 23//5
f 23//6 28//6 27//6
f 29//18 24//14 28//18
f 28//17 24//13 29//17
f 29//6 30//6 26//6
f 26//5 30//5 29//5
f 30//19 31//21 27//19
f 27//20 31//22 30//20
f 27//5 32//5 28//5
f 28//6 32//6 27//6
f 28//18 33//20 29//18
f 29//17 33//19 28//17
f 33//6 30//6 29//6
f 29//5 30//5 33//5
f 31//21 30//19 34//21
f 34//22 30//20 31//22
f 31//5 32//5 27//5
f 27//6 32//6 31//6
f 33//20 28//18 32//20
f 32//19 28//17 33//19
f 33//6 34//6 30//6
f 30//5 34//5 33//5
f 34//21 35//23 31//21
f 31//22 35//24 34//22
f 31//5 36//5 32//5
f 32//6 36//6 31//6
f 32//20 37//22 33//20
f 33//19 37//21 32//19
f 37//6 34//6 33//6
f 33//5 34//5 37//5
f 35//23 34//21 38//23
f 38//24 34//22 35//24
f 35//5 36//5 31//5
f 31//6 36//6 35//6
f 37//22 32//20 36//22
f 36//21 32//19 37//21
f 37//6 38//6 34//6
f 34//5 38//5 37//5
f 38//23 39//25 35//23
f 35//24 39//26 38//24
f 35//5 40//5 36//5
f 36//6 40//6 35//6
f 36//22 41//24 37//22
f 37//21 41//23 36//21
f 41//6 38//6 37//6
f 37//5 38//5 41//5
f 39//25 38//23 42//25
f 42//26 38//24 39//26
f 39//5 40//5 35//5
f 35//6 40//6 39//6
f 41//24 36//22 40//24
f 40//23 36//21 41//23
f 41//6 42//6 38//6
f 38//5 42//5 41//5
f 42//25 43//27 39//25
f 39//26 43//28 42//26
f 39//5 44//5 40//5
f 40//6 44//6 39//6
f 40//24 45//26 41//24
f 41//23 45//25 40//23
f 45//6 42//6 41//6
f 41//5 42//5 45//5
f 43//27 42//25 46//27
f 46//28 42//26 43//28
f 43//5 44//5 39//5
f 39//6 44//6 43//6
f 45//26 40//24 44//26
f 44//25 40//23 45//25
f 45//6 46//6 42//6
f 42//5 46//5 45//5
f 46//27 47//29 43//27
f 43//28 47//30 46//28
f 43//5 48//5 44//5
f 44//6 48//6 43//6
f 44//26 49//28 45//26
f 45//25 49//27 44//25
f 49//6 46//6 45//6
f 45//5 46//5 49//5
f 47//29 46//27 50//29
f 50//30 46//28 47//30
f 47//5 48//5 43//5
f 43//6 48//6 47//6
f 49//28 44//26 48//28
f 48//27 44//25 49//27
f 49//6 50//6 46//6
f 46//5 50//5 49//5
f 51//16 47//16 50//16
f 50//15 47//15 51//15
f 48//5 47//5 52//5
f 52//6 47//6 48//6
f 48//28 51//30 49//28
f 49//27 51//29 48//27
f 50//6 49//6 51//6
f 51//5 49//5 50//5
f 47//16 51//16 52//16
f 52//15 51//15 47//15
f 51//30 48//28 52//30
f 52//29 48//27 51//29
